# xmcd CD database file
#
# Track frame offsets:
#	150
#	23950
#	77002
#	104760
#	138987
#	177892
#	206925
#	248395
#	277915
#	309415
#
# Disc length: 4514 seconds
#
# Revision: 0
# Processed by: cddbd v1.5.1PL2 Copyright (c) Steve Scherf et al.
# Submitted via: CDex 1.51
#
DISCID=8311a00a
DTITLE=Jack Sheldon - Sunday Afternoons at the Lighthouse Cafe
DYEAR=2005
DGENRE=Jazz
TTITLE0=Lester Leaps In
TTITLE1=My Funny Valentine
TTITLE2=Dinah
TTITLE3=Robbins' Nest
TTITLE4=Cherry
TTITLE5=Sweet Georgia Brown
TTITLE6=Satin Doll
TTITLE7=Star Dust
TTITLE8=Love is Here to Stay
TTITLE9=I Can't Get Started
EXTD=YEAR: 2005
EXTT0=
EXTT1=
EXTT2=
EXTT3=
EXTT4=
EXTT5=
EXTT6=
EXTT7=
EXTT8=
EXTT9=
PLAYORDER=
